# xmcd
#
# Track frame offsets:
#	150
#	17750
#	33612
#	49387
#	67725
#	85765
#	102647
#	119977
#	139090
#	156727
#	171252
#	186232
#	200775
#	214582
#	235397
#	251072
#
# Disc length: 3544 seconds
#
# Revision: 1
# Processed by: cddbd v1.5.1PL2 Copyright (c) Steve Scherf et al.
# Submitted via: audiograbber 1.83.01
#
DISCID=fb0dd610
DTITLE=Quero-Quero - Os 16 Grandes Sucessos
DYEAR=2005
DGENRE=
TTITLE0=Vaneira Pra Mim
TTITLE1=Quando a Saudade Bateu
TTITLE2=Meu Mundo de Domador
TTITLE3=Pé no Estribo
TTITLE4=Todo Homem do Pampa
TTITLE5=Gaiteiro Apaixonado
TTITLE6=De um Coração Chibeiro
TTITLE7=Baile do Quero-Quero
TTITLE8=Amiga Especial
TTITLE9=Os "Zóio" da Quatiara
TTITLE10=Um Grito Gaúcho
TTITLE11=Bate Que Bate
TTITLE12=No Troco do Quero-Quero
TTITLE13=Entrando no Bororé
TTITLE14=Os Bonitão
TTITLE15=O Cosa Feia
EXTD=
EXTT0=
EXTT1=
EXTT2=
EXTT3=
EXTT4=
EXTT5=
EXTT6=
EXTT7=
EXTT8=
EXTT9=
EXTT10=
EXTT11=
EXTT12=
EXTT13=
EXTT14=
EXTT15=
PLAYORDER=
